<?xml version="1.0" encoding="UTF-8" standalone="no"?>
<svg
   xmlns:dc="http://purl.org/dc/elements/1.1/"
   xmlns:cc="http://creativecommons.org/ns#"
   xmlns:rdf="http://www.w3.org/1999/02/22-rdf-syntax-ns#"
   xmlns:svg="http://www.w3.org/2000/svg"
   xmlns="http://www.w3.org/2000/svg"
   xmlns:sodipodi="http://sodipodi.sourceforge.net/DTD/sodipodi-0.dtd"
   xmlns:inkscape="http://www.inkscape.org/namespaces/inkscape"
   version="1.0"
   width="307.000000pt"
   height="225.000000pt"
   viewBox="0 0 307.000000 225.000000"
   preserveAspectRatio="xMidYMid meet"
   id="svg899"
   sodipodi:docname="uao-accreditation-negro.svg"
   inkscape:version="0.92.4 (5da689c313, 2019-01-14)">
  <metadata
     id="metadata905">
    <rdf:RDF>
      <cc:Work
         rdf:about="">
        <dc:format>image/svg+xml</dc:format>
        <dc:type
           rdf:resource="http://purl.org/dc/dcmitype/StillImage" />
      </cc:Work>
    </rdf:RDF>
  </metadata>
  <defs
     id="defs903" />
  <sodipodi:namedview
     pagecolor="#ffffff"
     bordercolor="#666666"
     borderopacity="1"
     objecttolerance="10"
     gridtolerance="10"
     guidetolerance="10"
     inkscape:pageopacity="0"
     inkscape:pageshadow="2"
     inkscape:window-width="1304"
     inkscape:window-height="745"
     id="namedview901"
     showgrid="false"
     inkscape:zoom="0.47638437"
     inkscape:cx="102.39505"
     inkscape:cy="98.302455"
     inkscape:window-x="-8"
     inkscape:window-y="-8"
     inkscape:window-maximized="1"
     inkscape:current-layer="svg899" />
  <g
     transform="translate(0.000000,225.000000) scale(0.100000,-0.100000)"
     fill="#000000"
     stroke="none"
     id="g897"
     style="fill:#000000;fill-opacity:1">
    <path
       d="M2430 2055 c-98 -28 -175 -86 -241 -181 -56 -82 -59 -104 -59 -479 0 -385 2 -401 71 -479 76 -86 190 -120 324 -97 135 24 240 103 302 229 l38 76 0 360 c0 357 0 362 -23 408 -30 60 -90 121 -150 149 -60 29 -183 36 -262 14z m175 -255 l30 -30 3 -303 c2 -273 1 -305 -15 -337 -27 -52 -75 -80 -140 -80 -121 0 -123 8 -123 375 0 250 2 302 16 330 39 84 165 108 229 45z"
       id="path861"
       style="fill:#000000;fill-opacity:1" />
    <path
       d="M1757 1979 c-175 -23 -229 -34 -273 -55 -72 -34 -162 -123 -199 -199 l-30 -60 -5 -472 -5 -472 -29 -30 c-36 -37 -44 -36 154 -11 85 11 159 20 163 20 5 0 -5 12 -22 26 l-31 26 2 196 3 197 100 12 c55 6 110 12 123 12 l22 1 0 -192 c0 -189 0 -191 -26 -225 -14 -18 -20 -33 -14 -33 20 0 285 30 307 35 21 5 21 6 -8 34 l-29 29 0 561 0 560 31 36 c38 43 58 43 -234 4z m-29 -406 l-3 -168 -100 -12 c-162 -19 -145 -32 -145 105 0 128 12 169 60 204 23 17 100 34 163 37 l27 1 -2 -167z"
       id="path863"
       style="fill:#000000;fill-opacity:1" />
    <path
       d="M895 1877 c-88 -11 -162 -22 -164 -24 -3 -2 8 -16 22 -31 l27 -28 0 -428 c0 -467 1 -458 -59 -509 -43 -36 -120 -45 -163 -20 -18 11 -39 30 -45 44 -10 18 -13 133 -13 456 l0 431 26 31 26 31 -29 0 c-31 0 -253 -27 -290 -35 -21 -5 -21 -6 8 -34 l29 -29 0 -455 0 -454 30 -61 c53 -105 138 -162 256 -170 178 -11 336 78 420 239 l29 54 3 470 3 470 30 38 c16 20 26 36 22 36 -4 -1 -80 -11 -168 -22z"
       id="path865"
       style="fill:#000000;fill-opacity:1" />
    <path
       d="M2070 559 c0 -24 23 -21 28 4 2 10 -3 17 -12 17 -10 0 -16 -9 -16 -21z"
       id="path867"
       style="fill:#000000;fill-opacity:1" />
    <path
       d="M1962 528 c-7 -7 -12 -18 -12 -25 0 -7 -4 -13 -10 -13 -15 0 -12 -27 4 -33 10 -4 16 -25 18 -64 3 -57 3 -58 36 -61 24 -2 32 1 32 12 0 9 -6 16 -14 16 -28 0 -38 96 -11 106 8 4 15 12 15 20 0 8 -7 14 -15 14 -8 0 -15 9 -15 20 0 23 -10 26 -28 8z"
       id="path869"
       style="fill:#000000;fill-opacity:1" />
    <path
       d="M2304 531 c-2 -2 -4 -40 -4 -83 0 -71 2 -78 20 -78 18 0 20 7 20 65 0 51 4 67 16 72 23 9 34 -15 34 -74 0 -40 4 -53 15 -53 21 0 22 132 1 149 -13 11 -92 12 -102 2z"
       id="path871"
       style="fill:#000000;fill-opacity:1" />
    <path
       d="M1580 500 c0 -11 7 -20 15 -20 8 0 15 9 15 20 0 11 -7 20 -15 20 -8 0 -15 -9 -15 -20z"
       id="path873"
       style="fill:#000000;fill-opacity:1" />
    <path
       d="M2156 498 c-9 -13 -16 -43 -16 -70 0 -39 4 -50 25 -64 26 -17 55 -13 80 12 18 19 21 114 3 132 -21 21 -75 15 -92 -10z m68 -24 c17 -45 -6 -106 -34 -89 -11 7 -14 88 -3 98 11 12 31 7 37 -9z"
       id="path875"
       style="fill:#000000;fill-opacity:1" />
    <path
       d="M1498 473 c-2 -30 -7 -37 -26 -38 -37 -3 -55 -29 -60 -88 -5 -62 15 -94 52 -82 12 4 31 6 44 6 22 -1 22 1 22 119 0 98 -3 120 -14 120 -10 0 -16 -13 -18 -37z m-4 -89 c17 -45 -6 -106 -34 -89 -11 7 -14 88 -3 98 11 12 31 7 37 -9z"
       id="path877"
       style="fill:#000000;fill-opacity:1" />
    <path
       d="M2066 451 c-8 -68 0 -111 20 -111 11 0 14 19 14 85 0 65 -3 85 -14 85 -9 0 -16 -19 -20 -59z"
       id="path879"
       style="fill:#000000;fill-opacity:1" />
    <path
       d="M1664 464 c-11 -24 -14 -38 -7 -42 6 -4 14 -31 18 -60 7 -54 28 -78 59 -66 22 9 20 25 -4 31 -17 4 -20 14 -20 54 0 37 4 49 15 49 8 0 15 7 15 15 0 8 -7 15 -15 15 -8 0 -15 9 -15 20 0 32 -28 23 -46 -16z"
       id="path881"
       style="fill:#000000;fill-opacity:1" />
    <path
       d="M1802 464 c-12 -8 -22 -22 -22 -30 0 -19 27 -18 38 3 6 10 16 14 27 10 23 -9 17 -21 -25 -49 -42 -29 -52 -71 -21 -88 14 -7 27 -7 39 -1 10 5 27 9 37 8 18 -2 20 5 23 64 2 51 -1 71 -13 83 -21 20 -54 20 -83 0z m55 -108 c-8 -19 -37 -21 -37 -3 0 7 5 18 12 25 15 15 33 -1 25 -22z"
       id="path883"
       style="fill:#000000;fill-opacity:1" />
    <path
       d="M1580 365 c0 -69 3 -85 15 -85 12 0 15 16 15 85 0 69 -3 85 -15 85 -12 0 -15 -16 -15 -85z"
       id="path885"
       style="fill:#000000;fill-opacity:1" />
    <path
       d="M703 412 c-7 -5 -23 -61 -37 -125 -22 -109 -22 -117 -6 -117 11 0 20 10 24 25 5 20 13 25 36 25 23 0 30 -4 30 -20 0 -20 24 -28 34 -12 3 5 1 24 -4 43 -5 19 -16 69 -25 112 -16 74 -25 86 -52 69z m27 -129 c0 -14 -6 -23 -15 -23 -16 0 -18 12 -8 48 4 18 8 20 14 10 5 -7 9 -23 9 -35z"
       id="path887"
       style="fill:#000000;fill-opacity:1" />
    <path
       d="M1300 413 c-29 -10 -40 -37 -40 -95 0 -52 3 -60 24 -69 32 -15 80 7 84 39 4 26 -15 29 -33 5 -15 -21 -48 -10 -43 14 2 13 16 20 43 23 37 5 40 7 38 35 -3 43 -33 62 -73 48z m40 -43 c0 -5 -12 -10 -26 -10 -14 0 -23 4 -19 10 3 6 15 10 26 10 10 0 19 -4 19 -10z"
       id="path889"
       style="fill:#000000;fill-opacity:1" />
    <path
       d="M1176 391 c-3 -5 -15 -7 -26 -4 -19 5 -20 0 -20 -75 0 -45 4 -83 8 -86 19 -11 31 14 34 69 3 51 6 61 26 70 12 5 22 15 22 22 0 15 -36 18 -44 4z"
       id="path891"
       style="fill:#000000;fill-opacity:1" />
    <path
       d="M1014 375 c-67 -28 -55 -165 14 -165 27 0 62 29 62 51 0 22 -25 26 -34 4 -3 -8 -15 -15 -26 -15 -17 0 -20 6 -20 44 0 52 12 64 46 45 27 -14 39 -8 31 15 -10 27 -40 35 -73 21z"
       id="path893"
       style="fill:#000000;fill-opacity:1" />
    <path
       d="M863 360 c-29 -12 -43 -40 -43 -89 0 -40 26 -81 51 -81 29 0 69 33 69 58 0 17 -27 15 -34 -3 -3 -8 -15 -15 -26 -15 -17 0 -20 6 -20 45 0 48 20 69 43 46 14 -14 37 -15 37 -1 0 12 -37 50 -47 49 -5 0 -18 -4 -30 -9z"
       id="path895"
       style="fill:#000000;fill-opacity:1" />
  </g>
</svg>
